<svg width="99" height="32" viewBox="0 0 99 32" fill="none" xmlns="http://www.w3.org/2000/svg">
<path d="M13.9714 9.58155C13.8939 9.58155 13.8279 9.5246 13.8142 9.44714C13.4634 7.33993 12.5544 6.58133 11.0441 6.58133C9.53371 6.58133 8.33545 7.62241 8.33545 8.99836C8.33545 10.8322 10.0007 11.666 13.3768 13.1239C20.1677 16.0399 21.8763 18.5002 21.8763 22.5415C21.8763 28.4986 17.7917 32 11.1261 32C4.46045 32 0 28.4986 0 21.874V21.3683C0 21.2794 0.0706194 21.2088 0.159464 21.2088H7.67936C7.76593 21.2088 7.83427 21.2771 7.83883 21.3637C7.92767 23.8172 9.16694 25.4164 11.0851 25.4164C12.7093 25.4164 14.0443 24.1247 14.0443 22.4572C14.0443 19.9991 10.6272 18.9148 7.83655 17.7917C2.79519 15.7506 0.503452 13.0829 0.503452 9.08265C0.503452 3.83399 5.58582 0 11.2536 0C13.2948 0 15.0876 0.457891 16.7119 1.29166C19.9604 2.97743 21.5437 5.39446 21.6257 9.41981C21.6257 9.50865 21.5551 9.58155 21.4662 9.58155H13.9714Z" fill="#0ACC8B"/>
<path d="M23.7967 31.2551V0.742649C23.7967 0.653805 23.8673 0.583185 23.9561 0.583185H40.7614C40.8503 0.583185 40.9209 0.653805 40.9209 0.742649V7.33993C40.9209 7.42877 40.8503 7.49939 40.7614 7.49939H31.4965C31.4077 7.49939 31.3371 7.57001 31.3371 7.65886V12.1307C31.3371 12.2195 31.4077 12.2902 31.4965 12.2902H40.4698C40.5587 12.2902 40.6293 12.3608 40.6293 12.4496V19.0469C40.6293 19.1358 40.5587 19.2064 40.4698 19.2064H31.4965C31.4077 19.2064 31.3371 19.277 31.3371 19.3658V24.3389C31.3371 24.4277 31.4077 24.4983 31.4965 24.4983H40.7614C40.8503 24.4983 40.9209 24.5689 40.9209 24.6578V31.2551C40.9209 31.3439 40.8503 31.4145 40.7614 31.4145H23.9561C23.8673 31.4145 23.7967 31.3439 23.7967 31.2551Z" fill="#0ACC8B"/>
<path d="M44.0669 0.742649C44.0669 0.653805 44.1375 0.583185 44.2264 0.583185H51.7827C51.8716 0.583185 51.9422 0.653805 51.9422 0.742649V31.2573C51.9422 31.3462 51.8716 31.4168 51.7827 31.4168H44.2264C44.1375 31.4168 44.0669 31.3462 44.0669 31.2573V0.742649Z" fill="#0ACC8B"/>
<path d="M55.537 31.2551V0.742649C55.537 0.653805 55.6076 0.583185 55.6964 0.583185H63.2528C63.3416 0.583185 63.4123 0.653805 63.4123 0.742649V20.7076H63.4965L76.5339 0.656083C76.5635 0.610522 76.6136 0.583185 76.6683 0.583185H85.7373C85.8649 0.583185 85.9423 0.726703 85.8694 0.833772L64.9226 31.3485C64.893 31.3918 64.8429 31.4168 64.7905 31.4168H55.701C55.6122 31.4168 55.5415 31.3462 55.5415 31.2573L55.537 31.2551Z" fill="#0ACC8B"/>
<path d="M90.5395 31.2551V27.1158C90.5395 27.027 90.4689 26.9564 90.38 26.9564H81.712C81.6573 26.9564 81.6049 26.986 81.5753 27.0338L78.9601 31.3394C78.9305 31.3872 78.8803 31.4168 78.8234 31.4168H69.7589C69.6314 31.4168 69.5539 31.2733 69.6268 31.1662L90.5736 0.651527C90.6033 0.608244 90.6534 0.583185 90.7058 0.583185H98.253C98.3419 0.583185 98.4125 0.653805 98.4125 0.742649V31.2573C98.4125 31.3462 98.3419 31.4168 98.253 31.4168H90.6967C90.6078 31.4168 90.5372 31.3462 90.5372 31.2573L90.5395 31.2551ZM90.5395 12.1649H90.4552L85.5141 20.4661C85.4503 20.5732 85.5277 20.7076 85.6507 20.7076H90.3777C90.4666 20.7076 90.5372 20.637 90.5372 20.5482V12.1649H90.5395Z" fill="#0ACC8B"/>
</svg>
