<?xml version="1.0" encoding="UTF-8"?><svg id="ARTWORK" xmlns="http://www.w3.org/2000/svg" width="1250.23" height="725" viewBox="0 0 1250.23 725"><defs><style>.cls-1{fill:#0acc8b;}.cls-2{fill:#1e1e1e;}</style></defs><path class="cls-1" d="M269.92,229.65c-3.14-20.78-11.76-28.22-26.26-28.22-13.72,0-25.48,9.8-25.48,22.73,0,17.25,15.67,25.08,47.42,38.8,63.88,27.44,79.95,50.56,79.95,88.57,0,56.04-38.41,88.97-101.11,88.97s-104.64-32.93-104.64-95.24v-6.27h73.68c.39,23.91,12.15,39.58,30.57,39.58,15.29,0,27.83-12.15,27.83-27.82,0-23.12-32.14-33.31-58.4-43.89-47.42-19.2-68.97-44.29-68.97-81.91,0-49.38,47.81-85.43,101.11-85.43,19.2,0,36.06,4.31,51.34,12.15,30.96,16.07,45.85,39.19,46.24,77.99h-73.28Z"/><path class="cls-1" d="M373.61,435.01V144.99h161.07v65.06h-90.14v45.07h87.4v65.06h-87.4v49.78h90.14v65.06h-161.07Z"/><path class="cls-1" d="M574.28,435.01V144.99h74.07v290.02h-74.07Z"/><path class="cls-1" d="M692.16,435.01V144.99h74.07v189.29h.78l123.06-189.29h88.96l-199.09,290.02h-87.78Z"/><path class="cls-1" d="M1031.4,435.01v-41.93h-83.87l-25.48,41.93h-88.96s199.09-290.02,199.09-290.02h73.29v290.02h-74.07ZM1031.4,253.94h-.78l-47.82,80.34h48.6v-80.34Z"/><path class="cls-2" d="M662.23,581.83c-3.77,0-7.17-.76-10.21-2.28-3.04-1.52-5.54-3.8-7.5-6.85h-.76l-.98,7.82h-9.24v-78.56h11.3v28.36h.65c1.23-1.88,2.7-3.44,4.4-4.67,1.7-1.23,3.64-2.14,5.81-2.72,2.17-.58,4.53-.87,7.06-.87,4.35,0,8.19,1.05,11.52,3.15,3.33,2.1,5.92,5.32,7.77,9.67,1.85,4.35,2.77,9.96,2.77,16.84s-.91,12.75-2.72,17.17c-1.81,4.42-4.4,7.68-7.77,9.78-3.37,2.1-7.41,3.15-12.12,3.15ZM659.08,572.05c3.26,0,5.92-.65,7.99-1.96,2.06-1.3,3.6-3.35,4.62-6.14,1.01-2.79,1.52-6.43,1.52-10.92v-1.96c0-4.49-.49-8.15-1.47-10.97-.98-2.83-2.52-4.91-4.62-6.25-2.1-1.34-4.85-2.01-8.26-2.01-2.1,0-4.02.36-5.76,1.09-1.74.73-3.22,1.87-4.46,3.42-1.23,1.56-2.17,3.57-2.83,6.03-.65,2.46-.98,5.43-.98,8.91v1.52c0,4.13.49,7.62,1.47,10.49.98,2.86,2.52,5.04,4.62,6.52,2.1,1.49,4.82,2.23,8.15,2.23Z"/><path class="cls-2" d="M701.96,600.3c-2.17,0-3.98-.16-5.43-.49-1.45-.33-2.35-.53-2.72-.6v-8.15h5.43c1.59,0,3.21-.36,4.84-1.09,1.63-.72,3.1-1.88,4.4-3.48,1.3-1.59,2.39-3.59,3.26-5.98l-22.28-57.16h11.84l11.08,28.47c.51,1.3,1.07,2.93,1.68,4.89.61,1.96,1.23,3.95,1.85,5.98.61,2.03,1.14,3.84,1.58,5.43h.54c.36-1.09.74-2.34,1.14-3.75.4-1.41.81-2.88,1.25-4.4.43-1.52.87-2.99,1.3-4.4s.8-2.62,1.09-3.64l9.24-28.58h11.52l-19.34,54.98c-1.09,3.04-2.28,5.9-3.59,8.58-1.3,2.68-2.81,5.02-4.51,7.01-1.7,1.99-3.71,3.55-6.03,4.67-2.32,1.12-5.04,1.68-8.15,1.68Z"/><path class="cls-2" d="M794.86,580.52l-27.49-74.54h13.15l18.47,52.05c.36.87.72,1.88,1.09,3.04.36,1.16.72,2.26,1.09,3.31.36,1.05.69,1.97.98,2.77h.54c.29-.8.61-1.7.98-2.72.36-1.01.72-2.06,1.09-3.15.36-1.09.72-2.14,1.09-3.15l18.26-52.16h12.71l-27.6,74.54h-14.34Z"/><path class="cls-2" d="M847.55,580.52v-74.54h12.17v74.54h-12.17Z"/><path class="cls-2" d="M905.5,581.83c-4.06,0-7.97-.42-11.74-1.25-3.77-.83-7.1-2.17-10-4.02-2.9-1.85-5.18-4.2-6.85-7.06-1.67-2.86-2.5-6.28-2.5-10.27,0-.43.02-.85.05-1.25.04-.4.05-.74.05-1.03h12.17c0,.22-.02.54-.05.98-.04.43-.05.8-.05,1.09,0,2.68.8,4.96,2.39,6.85,1.59,1.88,3.82,3.3,6.68,4.24,2.86.94,6.14,1.41,9.83,1.41,2.03,0,3.98-.13,5.87-.38,1.88-.25,3.6-.65,5.16-1.2,1.56-.54,2.92-1.23,4.07-2.06,1.16-.83,2.06-1.83,2.72-2.99.65-1.16.98-2.5.98-4.02,0-2.32-.67-4.24-2.01-5.76-1.34-1.52-3.15-2.79-5.43-3.8-2.28-1.01-4.85-1.92-7.72-2.72-2.86-.8-5.81-1.59-8.86-2.39-3.04-.8-6-1.74-8.86-2.83-2.86-1.09-5.43-2.41-7.71-3.97-2.28-1.56-4.09-3.51-5.43-5.87-1.34-2.35-2.01-5.23-2.01-8.64s.69-6.16,2.06-8.69c1.38-2.53,3.37-4.65,5.98-6.36,2.61-1.7,5.72-2.99,9.35-3.86,3.62-.87,7.71-1.3,12.28-1.3,3.91,0,7.61.42,11.08,1.25,3.48.83,6.52,2.12,9.13,3.86,2.61,1.74,4.65,3.95,6.14,6.63,1.48,2.68,2.23,5.87,2.23,9.56v1.3h-12.06v-1.41c0-2.32-.69-4.27-2.06-5.87-1.38-1.59-3.3-2.83-5.76-3.69-2.46-.87-5.32-1.3-8.58-1.3-3.84,0-7.06.38-9.67,1.14-2.61.76-4.58,1.81-5.92,3.15s-2.01,2.95-2.01,4.84c0,2.1.69,3.82,2.06,5.16,1.38,1.34,3.21,2.48,5.49,3.42,2.28.94,4.85,1.79,7.72,2.55,2.86.76,5.79,1.56,8.8,2.39,3.01.83,5.94,1.79,8.8,2.88,2.86,1.09,5.43,2.43,7.72,4.02,2.28,1.59,4.11,3.57,5.49,5.92,1.38,2.35,2.06,5.23,2.06,8.64,0,5.36-1.34,9.73-4.02,13.09-2.68,3.37-6.36,5.81-11.03,7.33-4.67,1.52-10.02,2.28-16.03,2.28Z"/><path class="cls-2" d="M951.33,580.52v-74.54h19.02l14.45,45.2c.43,1.3.87,2.79,1.3,4.46.43,1.67.85,3.26,1.25,4.78.4,1.52.71,2.86.92,4.02h.87c.14-1.09.4-2.39.76-3.91.36-1.52.74-3.11,1.14-4.78.4-1.67.81-3.22,1.25-4.67l14.56-45.09h18.69v74.54h-12.06v-40.86c0-2.75.04-5.61.11-8.58.07-2.97.14-5.61.22-7.93.07-2.32.11-3.8.11-4.46h-.87c-.15.8-.49,2.16-1.03,4.07-.54,1.92-1.11,3.97-1.68,6.14-.58,2.17-1.12,4.06-1.63,5.65l-15.1,45.96h-10.76l-15.1-45.86c-.43-1.38-.91-3.01-1.41-4.89-.51-1.88-1.02-3.8-1.52-5.76-.51-1.96-.94-3.73-1.3-5.32h-.87c.07,1.74.13,3.88.16,6.41.04,2.54.09,5.09.16,7.66.07,2.57.11,4.87.11,6.9v40.86h-11.74Z"/><path class="cls-2" d="M1036.27,580.52l29.23-74.54h15.54l29.34,74.54h-13.04l-6.63-17.28h-35.32l-6.63,17.28h-12.5ZM1059.31,552.92h27.38l-8.37-21.84c-.22-.65-.54-1.56-.98-2.72-.43-1.16-.89-2.43-1.36-3.8-.47-1.38-.94-2.77-1.41-4.18-.47-1.41-.89-2.7-1.25-3.86h-.65c-.43,1.38-.98,3.01-1.63,4.89-.65,1.88-1.29,3.69-1.9,5.43-.62,1.74-1.14,3.15-1.58,4.24l-8.26,21.84Z"/></svg>